<svg viewBox="239.2064 206.4384 583.6800000000001 561.152" xmlns:xlink="http://www.w3.org/1999/xlink" xmlns="http://www.w3.org/2000/svg" style="max-height: 500px" width="583.6800000000001" height="561.152"><path d="M84.4347 0L172.174 0L174.76 0L244.36 0L247.268 0L352.76 0L366.176 0L389.004 0L389.975 0L439.558 0L441.151 0L464.785 0L465.471 0L489.881 0L517.234 0L540.836 0L543.17 0L565.948 0L591.373 0L667.176 0L714.482 0L763.726 0L764.743 0L789.233 0L791.463 0L814.797 0L966.311 0L992.026 0L993.943 0L1057.71 0L1108.1 0L1110.11 0L1190.66 0L1192.48 0L1275.15 0L1277.28 0L1344 0L1344 64.8151L1344 67.3885L1344 134.643L1344 136.615L1344 211.297L1344 213.463L1344 416.483L1344 521.588L1344 523.446L1344 586.438L1344 588.222L1344 689.135L1344 691.561L1344 768L1294.83 768L1293.19 768L1225.17 768L1223.71 768L1150.12 768L1147.89 768L1001.13 768L227.342 768L226.154 768L149.465 768L147.245 768L66.9137 768L64.8367 768L0 768L0 717.771L0 715.842L0 639.459L0 637.257L0 564.943L0 562.795L0 543.918L0 245.608L0 243.339L0 173.454L0 171.243L0 84.8176C27.3619 80.0552 37.4262 72.2848 57.4405 54.5735C59.9719 52.0466 62.874 48.6624 65.3211 45.9643C65.8895 44.8598 67.3246 42.8082 68.0561 41.7411C77.127 28.508 81.2853 15.6167 84.4347 0Z" transform="scale(1.33333 1.33333)" fill="#0C0A0B"/><path d="M84.4347 0L172.174 0L174.76 0L244.36 0C241.747 44.8263 224.817 90.7964 199.433 127.603C190.207 142.624 165.847 170.901 151.625 181.037C143.219 188.908 132.236 196.454 122.48 202.627C83.2825 227.429 45.9492 239.334 0 243.339L0 173.454L0 171.243L0 84.8176C27.3619 80.0552 37.4262 72.2848 57.4405 54.5735C59.9719 52.0466 62.874 48.6624 65.3211 45.9643C65.8895 44.8598 67.3246 42.8082 68.0561 41.7411C77.127 28.508 81.2853 15.6167 84.4347 0Z" transform="scale(1.33333 1.33333)"/><path d="M174.76 0L244.36 0C241.747 44.8263 224.817 90.7964 199.433 127.603C190.207 142.624 165.847 170.901 151.625 181.037C153.399 177.639 164.127 168.079 167.812 164.289C165.397 162.126 160.485 155.866 157.183 152.554L119.765 115.205L121.122 114.095C153.385 80.0047 168.875 46.3478 174.76 0Z" transform="scale(1.33333 1.33333)"/><path d="M119.765 115.205L121.122 114.095C124.457 118.343 135.454 129.148 139.612 133.118C146.43 139.629 158.556 152.542 165.921 158.163C172.612 151.741 192.972 128.304 199.433 127.603C190.207 142.624 165.847 170.901 151.625 181.037C153.399 177.639 164.127 168.079 167.812 164.289C165.397 162.126 160.485 155.866 157.183 152.554L119.765 115.205Z" transform="scale(1.33333 1.33333)" fill="#0C0A0B"/><path d="M57.4405 54.5735C64.5953 56.8573 104.641 101.9 113.775 109.193C114.291 109.605 117.599 113.037 118.059 113.648C85.7315 147.563 46.0783 165.621 0 171.243L0 84.8176C27.3619 80.0552 37.4262 72.2848 57.4405 54.5735Z" transform="scale(1.33333 1.33333)"/><path d="M84.4347 0L172.174 0C168.521 39.1886 149.123 85.8639 119.562 112.227L118.059 113.648C117.599 113.037 114.291 109.605 113.775 109.193C104.641 101.9 64.5953 56.8573 57.4405 54.5735C59.9719 52.0466 62.874 48.6624 65.3211 45.9643C65.8895 44.8598 67.3246 42.8082 68.0561 41.7411C77.127 28.508 81.2853 15.6167 84.4347 0Z" transform="scale(1.33333 1.33333)"/><path d="M57.4405 54.5735C59.9719 52.0466 62.874 48.6624 65.3211 45.9643C64.5807 49.7639 63.4957 51.4874 61.2697 54.714L100.72 94.0632C104.506 97.8201 115.938 109.585 119.562 112.227L118.059 113.648C117.599 113.037 114.291 109.605 113.775 109.193C104.641 101.9 64.5953 56.8573 57.4405 54.5735Z" transform="scale(1.33333 1.33333)" fill="#0C0A0B"/><path d="M172.174 0L174.76 0C168.875 46.3478 153.385 80.0047 121.122 114.095L119.765 115.205C112.283 121.316 105.035 128.978 97.8656 134.528C69.3969 156.176 35.5574 169.636 2.33147e-15 173.454L0 171.243C46.0783 165.621 85.7315 147.563 118.059 113.648L119.562 112.227C149.123 85.8639 168.521 39.1886 172.174 0Z" transform="scale(1.33333 1.33333)" fill="#8B2E25"/><path d="M1110.11 0L1190.66 0L1192.48 0L1275.15 0L1277.28 0L1344 0L1344 64.8151L1344 67.3885L1344 134.643L1344 136.615L1344 211.297C1298.18 205.9 1263.72 194.574 1225.03 169.187C1166.15 129.921 1124.92 69.218 1110.11 0Z" transform="scale(1.33333 1.33333)"/><path d="M1192.48 0L1275.15 0L1277.28 0L1344 0L1344 64.8151L1344 67.3885L1344 134.643C1316.9 133.069 1290.71 124.251 1268.17 109.109C1229.8 83.7384 1201.78 45.3237 1192.48 0Z" transform="scale(1.33333 1.33333)"/><path d="M1277.28 0L1344 0L1344 64.8151C1308.52 55.3602 1288.04 35.1108 1277.28 0Z" transform="scale(1.33333 1.33333)"/><path d="M1275.15 0L1277.28 0C1288.04 35.1108 1308.52 55.3602 1344 64.8151L1344 67.3885C1308.79 57.2519 1284.88 35.9093 1275.15 0Z" transform="scale(1.33333 1.33333)" fill="#8B2E25"/><path d="M1190.66 0L1192.48 0C1201.78 45.3237 1229.8 83.7384 1268.17 109.109C1290.71 124.251 1316.9 133.069 1344 134.643L1344 136.615C1273.69 134.703 1201.81 68.95 1190.66 0Z" transform="scale(1.33333 1.33333)" fill="#8B2E25"/><path d="M1150.12 768C1150.52 724.922 1165.09 676.16 1187.12 638.964C1214.11 593.402 1255.32 557.502 1303.8 536.168C1316.51 530.575 1330.55 526.873 1344 523.446L1344 586.438L1344 588.222L1344 689.135L1344 691.561L1344 768L1294.83 768L1293.19 768L1225.17 768L1223.71 768L1150.12 768Z" transform="scale(1.33333 1.33333)"/><path d="M1225.17 768C1225.35 735.69 1229.7 710.773 1243.35 680.886C1258.79 647.077 1284.11 618.217 1316.74 600.06C1325.59 595.139 1334.61 591.785 1344 588.222L1344 689.135L1344 691.561L1344 768L1294.83 768L1293.19 768L1225.17 768Z" transform="scale(1.33333 1.33333)"/><path d="M1294.83 768C1297.59 731.82 1312.05 708.929 1344 691.561L1344 768L1294.83 768Z" transform="scale(1.33333 1.33333)"/><path d="M1344 689.135L1344 691.561C1312.05 708.929 1297.59 731.82 1294.83 768L1293.19 768C1293.91 731.873 1312.5 706.217 1344 689.135Z" transform="scale(1.33333 1.33333)" fill="#8B2E25"/><path d="M1223.71 768C1223.26 764.391 1223.53 756.612 1223.67 752.878C1224.75 724.847 1231.95 697.392 1244.75 672.434C1265.35 632.663 1300.95 600.053 1344 586.438L1344 588.222C1334.61 591.785 1325.59 595.139 1316.74 600.06C1284.11 618.217 1258.79 647.077 1243.35 680.886C1229.7 710.773 1225.35 735.69 1225.17 768L1223.71 768Z" transform="scale(1.33333 1.33333)" fill="#8B2E25"/><path d="M0 564.943C11.4378 566.519 25.8244 568.112 36.8919 570.886C96.283 585.768 142.739 617.132 179.556 665.586C196.747 688.437 210.025 713.985 218.848 741.188C221.315 748.89 223.978 762.033 226.154 768L149.465 768L147.245 768L66.9137 768L64.8367 768L0 768L0 717.771L0 715.842L0 639.459L0 637.257L0 564.943Z" transform="scale(1.33333 1.33333)"/><path d="M0 639.459C74.0827 645.747 130.351 696.051 147.245 768L66.9137 768L64.8367 768L0 768L0 717.771L0 715.842L0 639.459Z" transform="scale(1.33333 1.33333)"/><path d="M0 717.771C31.9071 724.85 49.7837 739.433 64.8367 768L0 768L0 717.771Z" transform="scale(1.33333 1.33333)"/><path d="M0 715.842C27.3458 721.211 44.1832 732.849 60.3149 756.11C62.5899 759.39 65.4279 764.334 66.9137 768L64.8367 768C49.7837 739.433 31.9071 724.85 0 717.771L0 715.842Z" transform="scale(1.33333 1.33333)" fill="#8B2E25"/><path d="M0 637.257C11.4573 638.814 24.2636 640.371 35.4156 643.82C70.2091 654.58 100.062 677.566 122.255 706.023C133.242 720.11 147.085 750.381 149.465 768L147.245 768C130.351 696.051 74.0827 645.747 0 639.459L0 637.257Z" transform="scale(1.33333 1.33333)" fill="#8B2E25"/><path d="M1001.13 768C1004.13 761.055 1026.63 740.303 1033.35 733.658L1088.04 679.394C1144.77 622.806 1200.94 565.658 1256.54 507.958L1309.1 454.118C1319.21 443.777 1330.17 433.664 1339.81 422.811C1340.94 421.55 1342.19 418.832 1343.69 416.884L1344 416.483L1344 521.588L1344 523.446C1330.55 526.873 1316.51 530.575 1303.8 536.168C1255.32 557.502 1214.11 593.402 1187.12 638.964C1165.09 676.16 1150.52 724.922 1150.12 768L1147.89 768L1001.13 768Z" transform="scale(1.33333 1.33333)"/><path d="M1296.39 537.271C1310.55 530.088 1328.66 525.374 1344 521.588L1344 523.446C1330.55 526.873 1316.51 530.575 1303.8 536.168C1255.32 557.502 1214.11 593.402 1187.12 638.964C1165.09 676.16 1150.52 724.922 1150.12 768L1147.89 768C1145.78 681.384 1194.22 607.24 1261.52 557.202C1263.18 556.271 1265.03 555.069 1266.63 553.992C1276.2 547.544 1286.13 542.517 1296.39 537.271Z" transform="scale(1.33333 1.33333)" fill="#8B2E25"/><path d="M1261.52 557.202C1263.17 552.532 1265.92 549.982 1270 547.228C1274.84 543.953 1291.1 535.258 1296.39 537.271C1286.13 542.517 1276.2 547.544 1266.63 553.992C1265.03 555.069 1263.18 556.271 1261.52 557.202Z" transform="scale(1.33333 1.33333)" fill="#0C0A0B"/><path d="M993.943 0L1057.71 0L1057.52 1.1372L1058.07 1.76095C1063.28 2.14547 1082.77 21.9844 1084.85 27.2365L1087.35 27.0974C1089.14 28.0164 1095.49 34.8528 1097.65 36.9593C1093.97 41.2405 1079.07 54.7368 1073.97 59.7293C1053.45 79.5449 1033.07 99.4982 1012.83 119.588C1006.06 114.121 995.67 102.831 989.352 96.3875C978.633 85.4553 967.462 74.9761 955.868 64.9773C963.925 56.9686 1016.59 7.30736 1019.22 2.0452L1018.55 3.29473L1017.7 2.77189C1010.27 8.98086 1002.52 17.8179 995.295 24.5274C981.717 37.142 968.062 51.0575 954.136 63.1638C949.715 58.9654 946.606 55.6845 942.548 51.1234C944.852 49.1074 947.17 46.6951 949.379 44.5493C964.46 29.8979 979.643 15.4197 993.943 0Z" transform="scale(1.33333 1.33333)"/><path d="M244.36 0L247.268 0L352.76 0C356.873 4.17971 361.677 8.82336 365.273 13.3623C361.192 9.93033 357.19 5.76512 353.391 1.96923L312.655 1.96923C304.183 8.87597 296.811 16.7335 289.166 24.5374C270.909 43.1758 250.387 60.8312 232.354 79.5171L232.373 80.1664L234.094 80.0459C232.821 82.7791 226.028 88.2671 224.264 91.3652C221.084 96.9468 220.379 102.202 216.826 107.643C207.5 121.922 199.793 134.497 188.982 147.848C148.848 197.813 91.9611 231.525 28.8705 242.734C20.445 244.29 11.1716 245.436 2.65987 246.497C1.612 250.999 1.92828 262.965 1.92793 268.166L1.93863 304.388L1.96681 462.363L1.9965 512.48C2.01362 518.802 3.68357 540.2 0 543.918L0 245.608L0 243.339C45.9492 239.334 83.2825 227.429 122.48 202.627C132.236 196.454 143.219 188.908 151.625 181.037C165.847 170.901 190.207 142.624 199.433 127.603C224.817 90.7964 241.747 44.8263 244.36 0Z" transform="scale(1.33333 1.33333)"/><path d="M244.36 0L247.268 0C244.419 21.1899 240.265 46.2663 233.277 66.6312C216.497 115.529 183.693 159.583 142.939 190.99C98.9044 224.926 54.4454 240.04 0 245.608L0 243.339C45.9492 239.334 83.2825 227.429 122.48 202.627C132.236 196.454 143.219 188.908 151.625 181.037C165.847 170.901 190.207 142.624 199.433 127.603C224.817 90.7964 241.747 44.8263 244.36 0Z" transform="scale(1.33333 1.33333)" fill="#8B2E25"/><path d="M591.373 0L667.176 0L617.752 49.4059C609.997 57.093 599.752 67.7818 591.513 74.5911C588.564 71.5571 581.216 64.8785 580.242 61.2539C578.247 60.6626 577.071 60.6882 576.177 58.8543L578.226 59.9653C580.819 59.6846 583.452 56.1381 585.548 54.1625C603.667 37.0842 620.838 19.2102 638.859 1.96923C623.009 1.94084 607.159 2.00808 591.31 2.17095L591.373 0Z" transform="scale(1.33333 1.33333)"/><path d="M389.975 0L439.558 0C426.68 11.5936 410.152 31.5615 396.874 41.4402L373.332 17.159C378.564 12.1572 385.616 5.58874 389.975 0Z" transform="scale(1.33333 1.33333)"/><path d="M465.471 0L489.881 0C476.702 12.6456 463.884 24.5747 451.02 37.6012C444.462 44.2425 428.866 61.0018 422.402 65.8795L411.219 54.3849L411.485 54.1704C417.348 49.3525 463.635 4.20569 465.471 0Z" transform="scale(1.33333 1.33333)"/><path d="M966.311 0L992.026 0C985.604 5.46689 975.25 17.1449 968.604 23.6065C959.777 32.1874 949.106 41.7299 941.058 50.6421C936.962 46.8402 933.011 42.6621 929.113 38.6397C939.254 27.1796 958.285 10.712 966.311 0Z" transform="scale(1.33333 1.33333)"/><path d="M441.151 0L464.785 0C448.02 15.9395 426.716 39.1347 409.516 53.3529C405.675 49.5699 402.452 46.3504 398.904 42.3009C405.463 36.6915 413.918 27.78 420.189 21.549C426.429 15.3487 435.7 6.5684 441.151 0Z" transform="scale(1.33333 1.33333)"/><path d="M791.463 0L814.797 0C798.69 16.5528 776.714 35.9657 762.332 52.4883C758.12 48.5318 754.781 45.0382 750.846 40.7945C763.766 28.1019 779.455 13.0552 791.463 0Z" transform="scale(1.33333 1.33333)"/><path d="M764.743 0L789.233 0C775.82 12.1392 762.615 27.6799 749.098 39.4476C745.144 35.4225 741.761 31.8903 737.404 28.3017C742.009 23.5391 761.885 4.68849 764.743 0Z" transform="scale(1.33333 1.33333)"/><path d="M1108.1 0L1110.11 0C1124.92 69.218 1166.15 129.921 1225.03 169.187C1263.72 194.574 1298.18 205.9 1344 211.297L1344 213.463C1238.86 206.525 1145.24 124.92 1114.64 25.5317C1112.15 17.4547 1109.23 8.32435 1108.1 0Z" transform="scale(1.33333 1.33333)" fill="#8B2E25"/><path d="M714.482 0L763.726 0C753.657 8.67092 745.541 17.7821 735.941 26.7509C729.497 20.2902 719.151 11.4134 713.876 3.80716C713.006 2.55279 713.93 1.1573 714.482 0Z" transform="scale(1.33333 1.33333)"/><path d="M0 562.795C70.1545 567.616 129.731 603.132 174.541 655.83C196.913 682.14 224.243 733.679 227.342 768L226.154 768C223.978 762.033 221.315 748.89 218.848 741.188C210.025 713.985 196.747 688.437 179.556 665.586C142.739 617.132 96.283 585.768 36.8919 570.886C25.8244 568.112 11.4378 566.519 0 564.943L0 562.795Z" transform="scale(1.33333 1.33333)" fill="#8B2E25"/><path d="M543.17 0L565.948 0C557.725 9.07365 550.201 16.7097 541.596 25.4036C537.588 21.2969 534.122 17.6387 530.359 13.3113C534.53 9.45086 539.727 4.42539 543.17 0Z" transform="scale(1.33333 1.33333)"/><path d="M366.176 0L389.004 0C384.027 4.09449 376.689 11.7532 371.364 16.5079C367.45 12.796 364.044 8.75449 360.807 4.45319C362.399 3.02632 364.494 1.39137 366.176 0Z" transform="scale(1.33333 1.33333)"/><path d="M517.234 0L540.836 0L528.707 12.3357C523.646 7.45809 521.722 5.36905 517.234 0Z" transform="scale(1.33333 1.33333)"/><path d="M395.337 186.186C398.758 189.401 422.744 232.211 426.842 239.334L511.998 387.42L498.03 387.399C487.792 372.498 471.83 342.786 462.334 326.212L395.734 210.045C391.307 216.619 385.881 226.552 381.798 233.6L357.303 275.994C336.324 312.367 313.694 350.56 293.891 387.407L279.323 387.437C318.441 321.054 355.819 252.117 395.337 186.186Z" transform="scale(1.33333 1.33333)" fill="#DBDBD2"/><path d="M382.285 300.282C383.343 300.345 386.241 300.473 386.363 301.02C392.727 329.717 402.755 414.534 405.384 439.023C409.481 427.498 413.026 405.6 419.578 394.97C421.61 391.672 440.043 392.664 444.862 392.757C464.342 357.869 462.249 362.035 480.53 392.608L526.674 392.789C532.709 392.772 551.626 390.472 554.523 395.711C554.231 397.506 554.208 397.773 552.879 398.987C549.676 399.77 545.772 399.311 542.425 399.336C520.751 399.492 498.77 400.285 477.132 399.146C471.418 392.097 467.994 383.346 462.685 375.809C458.238 383.39 452.915 392.678 447.546 399.489C440.236 399.794 430.961 399.581 423.516 399.591C420.213 410.593 411.13 449.409 406.437 456.624C404.179 457.575 405.091 457.533 402.942 457.016C400.586 453.801 396.806 421.857 395.949 415.709C391.682 387.41 388.227 358.022 384.524 329.585C379.694 341.583 374.598 421.922 365.849 421.574C362.673 418.769 358.262 404.935 355.574 399.682L346.935 399.073C344.229 395.315 338.857 385.181 336.339 380.752C333.56 386.944 330.301 393.5 326.711 399.236C299.851 399.927 272.916 398.825 246.04 399.223C243.38 399.263 232.74 399.808 234.251 394.917C238.035 391.988 249.66 392.405 254.534 392.478C277.153 392.816 300.242 391.966 322.803 393.057C337.041 370.172 333.175 358.032 350.58 392.88C353.186 392.625 356.218 392.622 358.874 392.557C361.366 396.024 363.257 400.839 365.014 404.803C367.231 397.033 368.22 387.901 369.456 379.814L375.883 336.727C377.572 324.962 379.061 311.643 382.285 300.282Z" transform="scale(1.33333 1.33333)" fill="#8B2E25"/><path d="M508.083 404.606L521.827 404.643C544.571 441.086 564.532 480.279 586.893 517.044C590.405 522.819 593.784 531.108 583.911 531.566C567.563 532.324 550.615 531.88 534.235 531.876L432.797 531.968L416.646 531.988L416.636 519.193L573.848 519.238C567.687 507.542 560.442 495.803 553.74 484.341L523.01 431.39C520.613 427.254 508.748 407.461 508.083 404.606Z" transform="scale(1.33333 1.33333)" fill="#DBDBD2"/><path d="M269.002 404.467L282.867 404.868C275.464 418.725 266.474 433.669 258.55 447.335L216.776 519.292C268.788 518.723 320.804 518.679 372.817 519.158C372.84 522.132 373.264 528.793 372.224 531.191L370.883 531.719C352.015 531.704 209.499 534.051 202.86 530.319C201.344 529.467 200.7 528.233 200.206 526.632C201.863 518.737 226.128 478.655 232.169 468.273L269.002 404.467Z" transform="scale(1.33333 1.33333)" fill="#DBDBD2"/><path d="M395.263 495.431C399.789 500.874 407.258 513.668 409.205 520.568C412.672 532.852 406.26 539.685 394.756 542.477C366.172 536.248 383.846 509.302 395.263 495.431Z" transform="scale(1.33333 1.33333)" fill="#B71017"/><path d="M0 0L82.1541 0L84.4347 0C81.2853 15.6167 77.127 28.508 68.0561 41.7411C67.3246 42.8082 65.8895 44.8598 65.3211 45.9643C62.874 48.6624 59.9719 52.0466 57.4405 54.5735C37.4262 72.2848 27.3619 80.0552 0 84.8176L0 82.7828L0 0Z" transform="scale(1.33333 1.33333)"/><path d="M82.1541 0L84.4347 0C81.2853 15.6167 77.127 28.508 68.0561 41.7411C67.3246 42.8082 65.8895 44.8598 65.3211 45.9643C62.874 48.6624 59.9719 52.0466 57.4405 54.5735C37.4262 72.2848 27.3619 80.0552 0 84.8176L0 82.7828C13.9149 80.4325 27.6435 75.6514 39.1337 67.3801C65.2241 48.5989 76.3205 30.8059 82.1541 0Z" transform="scale(1.33333 1.33333)" fill="#8B2E25"/></svg>