<?xml version="1.0" encoding="utf-8" ?>
<svg xmlns="http://www.w3.org/2000/svg" xmlns:xlink="http://www.w3.org/1999/xlink" width="1792" height="1024" viewBox="0 0 1792 1024">
  <path fill="#100909" d="M0 0L5.89598 0L8.23765 0L109.769 0L112.923 0L229.749 0L232.999 0L325.758 0L329.219 0L350.219 0L352.974 0L419.387 0L421.455 0L469.946 0L487.829 0L518.597 0L520.87 0L551.54 0L553.762 0L585.87 0L588.493 0L619.759 0L622.671 0L653.827 0L655.938 0L684.612 0L690.866 0L721.692 0L724.532 0L755.209 0L757.767 0L788.624 0L791.769 0L822.027 0L825.456 0L856.146 0L858.932 0L890.007 0L893.172 0L940.308 0L953.293 0L1018.08 0L1020.64 0L1052.91 0L1055.01 0L1087.04 0L1089.57 0L1119.45 0L1121.44 0L1286.7 0L1288.37 0L1322.44 0L1325.46 0L1361.29 0L1362.81 0L1412.49 0L1414.42 0L1447.91 0L1449.46 0L1476.8 0L1480.07 0L1586.78 0L1589.99 0L1699.8 0L1702.65 0L1792 0L1792 86.664L1792 89.6108L1792 179.547L1792 182.304L1792 282.1L1792 284.62L1792 556.933L1792 593.386L1792 594.396L1792 695.353L1792 697.998L1792 781.856L1792 784.529L1792 918.877L1792 921.93L1792 1024L1726.59 1024L1723.88 1024L1633.72 1024L1631 1024L1533.46 1024L1530.38 1024L1504.54 1024L1502.91 1024L1431.91 1024L1429.34 1024L1398.05 1024L1394.89 1024L1365.85 1024L1361.74 1024L1336.09 1024L1295.67 1024L1293.56 1024L1253.47 1024L1250.88 1024L399.009 1024L397.106 1024L364.311 1024L362.444 1024L331.055 1024L329.594 1024L303.76 1024L300.691 1024L274.266 1024L271.655 1024L239.981 1024L237.502 1024L199.138 1024L195.895 1024L171.172 1024L170.339 1024L136.193 1024L134.685 1024L89.2808 1024L86.013 1024L0 1024L0 957.305L0 954.462L0 853.021L0 849.813L0 838.235L0 836.136L0 770.032L0 767.206L0 753.378L0 750.614L0 735.593L0 671.731L0 670.405L0 637.558L0 637.008L0 603.865L0 603.313L0 327.558L0 324.401L0 231.286L0 228.428L0 113.325L0 110.652L0 0Z"/>

  <path fill="#BA0E18" d="M1414.05 402.656C1425.74 402.48 1440.76 401.698 1452.45 402.975C1455.04 403.258 1455.74 405.558 1457.05 407.835C1480.63 453.799 1503.84 499.955 1526.67 546.298C1469.16 546.668 1410.28 545.381 1352.92 546.457C1349.16 546.607 1344.14 546.311 1340.29 546.196C1347.15 531.34 1357.51 512.913 1365.2 498.034L1414.05 402.656Z"/>
  <path fill="#982924" d="M1414.05 402.656C1425.74 402.48 1440.76 401.698 1452.45 402.975C1455.04 403.258 1455.74 405.558 1457.05 407.835C1449.94 407.608 1424.47 406.062 1420.26 407.4C1410.51 410.505 1395.86 445.588 1391.32 454.828C1385.9 465.63 1380.38 476.386 1374.78 487.094C1368.5 498.968 1360.29 509.587 1356.03 522.556C1352.47 533.397 1346.91 535.538 1352.92 546.457C1349.16 546.607 1344.14 546.311 1340.29 546.196C1347.15 531.34 1357.51 512.913 1365.2 498.034L1414.05 402.656Z"/>
  <path fill="#040304" d="M1393.73 518.378C1403.14 496.269 1422.55 456.035 1433.96 434.842C1438.23 442.271 1443.09 453.4 1446.99 461.454L1468.69 505.521C1470.69 509.497 1473.17 514.142 1474.87 518.188L1464.46 518.396C1442.25 517.818 1416.38 518.514 1393.73 518.378Z"/>
  
  <path fill="#DFDDD1" d="M1273.88 407.897L1304.97 407.93L1305.12 546.638L1272.27 546.69L1272.24 519.914L1272.26 464.541L1225.11 532.893L1205.6 532.891C1189.88 511.316 1174.59 487.607 1158.84 465.557L1159.01 546.725L1126.16 546.642C1125.6 500.815 1126.1 453.844 1126.09 407.927L1157.13 407.916L1215.75 494.841C1233.7 466.437 1255.14 436.475 1273.88 407.897Z"/>
  <path fill="#DFDDD1" d="M912.515 407.863L945.922 407.928C945.93 422.242 947.056 542.938 945.287 546.088L943.469 546.42L912.294 546.488C912.542 527.558 912.344 508.181 912.361 489.214L853.311 489.142L853.315 546.38L820.113 546.408L819.947 407.902L853.738 407.928C853.666 425.636 853.689 443.345 853.807 461.054L912.567 461.094L912.515 407.863Z"/>
  <path fill="#DFDDD1" d="M980.906 407.832L1088.29 407.904L1088.28 434.895L1014.38 434.949L1014.52 463.294C1035.01 462.795 1057.4 463.191 1077.99 463.316L1078.01 489.195L1015.05 489.158C1014.13 492.658 1014.69 514.409 1014.74 519.287C1039.88 518.879 1066.47 519.223 1091.68 519.401L1091.77 546.652C1055 546.197 1017.69 546.487 980.883 546.46L980.906 407.832Z"/>
  <path fill="#DFDDD1" d="M526.558 248.127C528.943 249.265 666.936 491.224 681.709 516.94L663.193 516.838C649.188 494.728 633.168 465.241 619.79 442.013L527.03 280.53C525.129 281.791 400.082 499.85 390.766 516.962L371.703 516.962L526.558 248.127Z"/>

  <path fill="#982924" d="M491.61 508.886L500.873 447.272C502.22 438.15 505.773 408.218 509.005 401.452C511.453 400.688 511.774 400.595 514.179 401.435C518.627 409.642 537.518 565.995 540.012 586.267C542.277 577.34 554.19 530.206 558.737 525.762C565.866 522.843 583.372 524.314 592.137 524.105C596.802 516.723 609.861 493.123 615.184 490.407C618.369 490.341 620.053 491.008 621.882 493.806C628.203 503.477 633.638 514.095 639.798 523.877C661.534 524.103 683.27 524.176 705.007 524.099C711.094 524.091 734.147 522.44 737.855 525.711C739.095 528.914 739.019 527.575 738.291 530.782C737.738 531.282 737.085 531.872 736.332 532.554C712.726 532.803 660.793 533.628 639.892 532.561C638.459 532.489 637.027 532.404 635.595 532.305C627.458 523.618 623.184 510.864 616.585 501.553C611.855 508.513 600.669 527.983 596.135 532.56C585.278 532.999 574.197 532.699 563.634 533.176C560.824 543.576 545.117 605.522 541.377 610.133C537.701 610.789 539.125 610.952 535.825 609.802C533.062 605.607 514.447 458.55 511.856 438.921L511.585 439.756C505.763 458.162 497.006 553.337 491.055 561.734C487.968 562.897 489.219 562.857 486.257 562.158C481.532 555.369 477.784 541.087 473.523 533.121L461.487 532.213C456.62 524.232 452.598 515.475 447.774 507.945C444.359 515.042 439.217 526.325 434.81 532.417C397.062 533.832 358.958 531.517 321.177 532.849C318.575 532.941 315.339 532.16 312.958 531.121L311.466 529.415C311.846 526.398 311.512 527.534 313.737 524.728C321.291 522.475 418.069 524.115 429.797 524.172L430.255 523.486C434.754 516.638 441.847 497.183 447.131 494.607C453.927 495.439 462.984 517.47 466.181 524.066L476.969 523.543L477.447 522.685C478.267 522.78 479.089 522.854 479.913 522.905C486.814 523.3 486.297 516.742 487.836 512.299C489.352 510.928 490.61 509.791 491.61 508.886Z"/>
  
  <linearGradient id="gradient_0" gradientUnits="userSpaceOnUse" x1="488.6933" y1="534.00079" x2="480.24277" y2="526.32666">
    <stop offset="0" stop-color="#2A0101"/>
    <stop offset="1" stop-color="#180909"/>
  </linearGradient>
  <path fill="url(#gradient_0)" d="M476.969 523.543L477.447 522.685C478.267 522.78 479.089 522.854 479.913 522.905C486.814 523.3 486.297 516.742 487.836 512.299C489.352 510.928 490.61 509.791 491.61 508.886C490.197 518.853 488.619 532.451 486.124 541.962C484.124 536.617 481.251 526.887 476.969 523.543Z"/>

  <path fill="#DFDDD1" d="M675.895 539.849L694.801 539.895C723.753 586.757 749.689 636.436 778.481 683.486C781.775 688.869 786.5 697.082 787.063 703.311C785.108 707.668 781.85 709.015 777.333 709.147C755.673 709.782 733.871 709.422 712.179 709.404L579.031 709.433L554.55 709.443C554.841 703.873 554.642 698.036 554.553 692.44L764.513 692.435C755.16 675.25 743.465 656.263 733.545 639.151L675.895 539.849Z"/>
  <path fill="#DFDDD1" d="M357.771 539.95L376.474 539.866C347.996 590.538 317.836 642.4 288.489 692.617C356.493 691.386 428.049 692.484 496.326 692.523C496.081 696.842 497.05 706.156 495.791 709.076L493.282 709.345C468.156 708.878 276.523 711.109 270.226 708.066C267.766 706.877 266.632 705.11 265.901 702.566C267.99 693.033 297.731 644.034 304.94 631.592L357.771 539.95Z"/>
  <path fill="#BA0E18" d="M526.08 660.534C531.471 669.866 538.128 678.994 542.732 688.688C550.622 705.298 544.662 720.832 525.708 723.318C520.735 722.698 516.957 721.844 512.871 718.808C492.285 703.512 516.755 674.102 526.08 660.534Z"/>
  <path fill="#642221" d="M923.777 570.197L1312.17 570.381C1359.38 569.971 1406.6 569.836 1453.81 569.976C1469.41 569.987 1510.36 569.169 1524.48 571.195L1524 571.746C1512.8 572.685 1498.69 572.387 1487.22 572.421L1427.47 572.413L978.269 572.603L872.368 572.586C860.82 572.587 828.877 573.591 819.748 571.393C822.174 569.771 913.561 570.217 923.777 570.197Z"/>
  
  </svg>
